<svg width="28" height="28" viewBox="0 0 28 28" fill="none" xmlns="http://www.w3.org/2000/svg">
<path d="M14.0008 5.41333C16.6297 5.41333 18.403 6.54889 19.4141 7.49778L23.3653 3.64C20.9386 1.38444 17.7808 0 14.0008 0C8.52525 0 3.79636 3.14222 1.49414 7.71556L6.02081 11.2311C7.15636 7.85556 10.2986 5.41333 14.0008 5.41333Z" fill="#EA4335"/>
<path d="M27.44 14.3111C27.44 13.16 27.3467 12.32 27.1444 11.4489H14V16.6445H21.7156C21.56 17.9356 20.72 19.88 18.8533 21.1867L23.2711 24.6089C25.9156 22.1667 27.44 18.5734 27.44 14.3111Z" fill="#4285F4"/>
<path d="M6.03556 16.7689C5.74 15.8978 5.56889 14.9645 5.56889 14C5.56889 13.0356 5.74 12.1022 6.02 11.2311L1.49333 7.71558C0.544444 9.61335 0 11.7445 0 14C0 16.2556 0.544444 18.3867 1.49333 20.2845L6.03556 16.7689Z" fill="#FBBC05"/>
<path d="M14.0009 28C17.7809 28 20.9542 26.7556 23.272 24.6089L18.8542 21.1867C17.672 22.0111 16.0853 22.5867 14.0009 22.5867C10.2987 22.5867 7.15643 20.1445 6.03643 16.7689L1.50977 20.2845C3.81199 24.8578 8.52532 28 14.0009 28Z" fill="#34A853"/>
</svg>
